<svg width="56" height="56" viewBox="0 0 56 56" fill="none" xmlns="http://www.w3.org/2000/svg">
<circle cx="28" cy="28" r="28" fill="#7209B7"/>
<g clip-path="url(#clip0_258_33)">
<path d="M39.9981 27.9991C39.9981 21.3722 34.626 16 27.9991 16C21.3722 16 16 21.3722 16 27.9991C16 33.9882 20.3879 38.9522 26.1242 39.8524V31.4676H23.0776V27.9991H26.1242V25.3555C26.1242 22.3483 27.9156 20.6871 30.6564 20.6871C31.9692 20.6871 33.3424 20.9215 33.3424 20.9215V23.8744H31.8294C30.3388 23.8744 29.8739 24.7993 29.8739 25.7482V27.9991H33.2018L32.6698 31.4676H29.8739V39.8524C35.6103 38.9522 39.9981 33.9882 39.9981 27.9991Z" fill="white"/>
</g>
<defs>
<clipPath id="clip0_258_33">
<rect width="24" height="24" fill="white" transform="translate(16 16)"/>
</clipPath>
</defs>
</svg>
