<svg width="56" height="56" viewBox="0 0 56 56" fill="none" xmlns="http://www.w3.org/2000/svg">
<circle cx="28" cy="28" r="28" fill="#7209B7"/>
<g clip-path="url(#clip0_258_37)">
<path d="M28 16C24.74 16 24.333 16.015 23.053 16.072C21.775 16.132 20.905 16.333 20.14 16.63C19.351 16.936 18.681 17.347 18.014 18.014C17.347 18.681 16.935 19.35 16.63 20.14C16.333 20.905 16.131 21.775 16.072 23.053C16.012 24.333 16 24.74 16 28C16 31.26 16.015 31.667 16.072 32.947C16.132 34.224 16.333 35.095 16.63 35.86C16.936 36.648 17.347 37.319 18.014 37.986C18.681 38.652 19.35 39.065 20.14 39.37C20.906 39.666 21.776 39.869 23.053 39.928C24.333 39.988 24.74 40 28 40C31.26 40 31.667 39.985 32.947 39.928C34.224 39.868 35.095 39.666 35.86 39.37C36.648 39.064 37.319 38.652 37.986 37.986C38.652 37.319 39.065 36.651 39.37 35.86C39.666 35.095 39.869 34.224 39.928 32.947C39.988 31.667 40 31.26 40 28C40 24.74 39.985 24.333 39.928 23.053C39.868 21.776 39.666 20.904 39.37 20.14C39.064 19.351 38.652 18.681 37.986 18.014C37.319 17.347 36.651 16.935 35.86 16.63C35.095 16.333 34.224 16.131 32.947 16.072C31.667 16.012 31.26 16 28 16ZM28 18.16C31.203 18.16 31.585 18.176 32.85 18.231C34.02 18.286 34.655 18.48 35.077 18.646C35.639 18.863 36.037 19.123 36.459 19.542C36.878 19.962 37.138 20.361 37.355 20.923C37.519 21.345 37.715 21.98 37.768 23.15C37.825 24.416 37.838 24.796 37.838 28C37.838 31.204 37.823 31.585 37.764 32.85C37.703 34.02 37.508 34.655 37.343 35.077C37.119 35.639 36.864 36.037 36.444 36.459C36.025 36.878 35.62 37.138 35.064 37.355C34.644 37.519 33.999 37.715 32.829 37.768C31.555 37.825 31.18 37.838 27.97 37.838C24.759 37.838 24.384 37.823 23.111 37.764C21.94 37.703 21.295 37.508 20.875 37.343C20.306 37.119 19.915 36.864 19.496 36.444C19.075 36.025 18.806 35.62 18.596 35.064C18.431 34.644 18.237 33.999 18.176 32.829C18.131 31.569 18.115 31.18 18.115 27.985C18.115 24.789 18.131 24.399 18.176 23.124C18.237 21.954 18.431 21.31 18.596 20.89C18.806 20.32 19.075 19.93 19.496 19.509C19.915 19.09 20.306 18.82 20.875 18.611C21.295 18.445 21.926 18.25 23.096 18.19C24.371 18.145 24.746 18.13 27.955 18.13L28 18.16ZM28 21.838C24.595 21.838 21.838 24.598 21.838 28C21.838 31.405 24.598 34.162 28 34.162C31.405 34.162 34.162 31.402 34.162 28C34.162 24.595 31.402 21.838 28 21.838ZM28 32C25.79 32 24 30.21 24 28C24 25.79 25.79 24 28 24C30.21 24 32 25.79 32 28C32 30.21 30.21 32 28 32ZM35.846 21.595C35.846 22.39 35.2 23.035 34.406 23.035C33.611 23.035 32.966 22.389 32.966 21.595C32.966 20.801 33.612 20.156 34.406 20.156C35.199 20.155 35.846 20.801 35.846 21.595Z" fill="white"/>
</g>
<defs>
<clipPath id="clip0_258_37">
<rect width="24" height="24" fill="white" transform="translate(16 16)"/>
</clipPath>
</defs>
</svg>
