<svg width="56" height="56" viewBox="0 0 56 56" fill="none" xmlns="http://www.w3.org/2000/svg">
<circle cx="28" cy="28" r="28" fill="#7209B7"/>
<g clip-path="url(#clip0_258_41)">
<path d="M39.954 20.5691C39.069 20.9581 38.124 21.2231 37.129 21.3441C38.143 20.7331 38.923 19.7701 39.292 18.6211C38.341 19.1761 37.287 19.5801 36.165 19.8051C35.269 18.8461 33.992 18.2461 32.574 18.2461C29.857 18.2461 27.654 20.4491 27.654 23.1631C27.654 23.5531 27.699 23.9281 27.781 24.2871C23.691 24.0941 20.066 22.1301 17.64 19.1611C17.213 19.8831 16.974 20.7221 16.974 21.6361C16.974 23.3461 17.844 24.8491 19.162 25.7321C18.355 25.7061 17.596 25.4841 16.934 25.1161V25.1771C16.934 27.5621 18.627 29.5511 20.88 30.0041C20.467 30.1151 20.031 30.1751 19.584 30.1751C19.27 30.1751 18.969 30.1451 18.668 30.0891C19.299 32.0421 21.113 33.4661 23.272 33.5061C21.592 34.8251 19.463 35.6111 17.17 35.6111C16.78 35.6111 16.391 35.5881 16 35.5441C18.189 36.9381 20.768 37.7531 23.557 37.7531C32.611 37.7531 37.556 30.2571 37.556 23.7671C37.556 23.5581 37.556 23.3471 37.541 23.1371C38.502 22.4481 39.341 21.5771 40.001 20.5891L39.954 20.5691Z" fill="white"/>
</g>
<defs>
<clipPath id="clip0_258_41">
<rect width="24" height="24" fill="white" transform="translate(16 16)"/>
</clipPath>
</defs>
</svg>
