<svg width="56" height="56" viewBox="0 0 56 56" fill="none" xmlns="http://www.w3.org/2000/svg">
<circle cx="28" cy="28" r="28" fill="#7209B7"/>
<path d="M39.057 35.3021H36.4367C35.4451 35.3021 35.1386 34.5133 33.3566 32.7073C31.8046 31.2048 31.1179 31.002 30.7363 31.002C30.2014 31.002 30.0482 31.1552 30.0482 31.893V34.2594C30.0482 34.8964 29.8453 35.278 28.1656 35.278C25.392 35.278 22.3119 33.5983 20.1498 30.4671C16.8925 25.8876 16 22.4514 16 21.7392C16 21.3576 16.1533 21.0015 16.891 21.0015H19.5113C20.1724 21.0015 20.4278 21.3065 20.6832 22.0187C21.9799 25.7598 24.1434 29.0428 25.0344 29.0428C25.3649 29.0428 25.5182 28.8895 25.5182 28.0511V24.1807C25.416 22.3988 24.474 22.2471 24.474 21.6115C24.474 21.305 24.7294 21 25.1351 21H29.2579C29.8183 21 30.0211 21.305 30.0211 21.9661V27.1842C30.0211 27.7431 30.2765 27.9475 30.4283 27.9475C30.7588 27.9475 31.0398 27.7431 31.6498 27.1331C33.5339 25.0206 34.8816 21.7633 34.8816 21.7633C35.0604 21.3816 35.3654 21.0255 36.028 21.0255H38.6483C39.4371 21.0255 39.6159 21.4312 39.4371 21.9916C39.1066 23.5197 35.9003 28.0481 35.9003 28.0481C35.6208 28.5064 35.5187 28.7092 35.9003 29.2201C36.1798 29.6017 37.0963 30.3905 37.7078 31.1027C38.8271 32.3753 39.6911 33.4435 39.9209 34.1827C40.1764 34.919 39.7932 35.3006 39.0555 35.3006L39.057 35.3021Z" fill="white"/>
</svg>
