<?xml version="1.0" ?><!DOCTYPE svg  PUBLIC '-//W3C//DTD SVG 1.1//EN'  'http://www.w3.org/Graphics/SVG/1.1/DTD/svg11.dtd'><svg enable-background="new 0 0 512 512" height="512px" id="Broom" version="1.1" viewBox="0 0 512 512" width="512px" xml:space="preserve" xmlns="http://www.w3.org/2000/svg" xmlns:xlink="http://www.w3.org/1999/xlink"><g><path d="M384.444,232.102L384.444,232.102c-2.038-2.037-5.342-2.037-7.379,0l-3.633,3.633l-3.633-3.633   c-2.037-2.038-5.341-2.038-7.378,0l0,0c-2.038,2.038-2.038,5.341-0.001,7.379l3.633,3.633l-3.633,3.633   c-2.037,2.038-2.037,5.341,0.001,7.378l0,0c2.037,2.038,5.341,2.038,7.378,0l3.633-3.633l3.633,3.633   c2.037,2.038,5.341,2.038,7.379,0l0,0c2.037-2.037,2.038-5.341,0-7.378l-3.633-3.633l3.633-3.633   C386.482,237.443,386.481,234.14,384.444,232.102z"/><path d="M214.27,165.777l-3.633,3.633l-3.633-3.633c-2.038-2.038-5.341-2.037-7.378,0l0,0c-2.037,2.037-2.037,5.34,0,7.377   l3.633,3.633l-3.633,3.634c-2.038,2.037-2.038,5.34,0,7.377l0,0c2.038,2.038,5.341,2.038,7.378,0l3.633-3.634l3.633,3.634   c2.038,2.037,5.341,2.037,7.378,0h0c2.037-2.037,2.037-5.34,0-7.377l-3.633-3.634l3.633-3.633c2.037-2.037,2.038-5.34,0-7.377h0   C219.611,163.74,216.308,163.739,214.27,165.777z"/><path d="M248.665,304.863l18.284-18.283l-9.133-9.133l171.996-171.997c6.414-6.414,6.414-16.85,0-23.263   c-6.413-6.414-16.85-6.414-23.264,0L234.553,254.183l-9.132-9.132l-18.285,18.285c-16.167-12.742-39.667-11.667-54.583,3.248   l-0.488,0.488l-0.334,0.605c-19.534,35.336-42.22,54.771-72.064,73.54c-2.27,1.427-2.969,4.417-1.566,6.701   c1.426,2.321,4.479,3.03,6.784,1.579c30.201-19.018,54.68-39.85,75.064-76.456c12.279-11.777,31.851-11.624,43.938,0.464   l34.607,34.607c12.087,12.087,12.241,31.658,0.463,43.938c-36.607,20.385-57.438,44.863-76.456,75.064   c-1.452,2.306-0.743,5.357,1.579,6.784c2.284,1.403,5.273,0.703,6.701-1.566c18.768-29.844,38.204-52.53,73.541-72.063l0.604-0.335   l0.488-0.488C260.33,344.531,261.406,321.03,248.665,304.863z M413.47,89.109c2.598-2.597,6.823-2.597,9.421,0   c2.597,2.597,2.597,6.823,0,9.42L250.895,270.525l-9.421-9.421L413.47,89.109z M227.631,261.104l23.264,23.264l2.211,2.212   l-11.151,11.15l-27.686-27.686l11.151-11.15L227.631,261.104z"/><path d="M120.702,390.529L120.702,390.529c-1.911-1.912-1.911-5.01,0-6.922l40.587-40.587c1.912-1.911,5.01-1.911,6.921,0l0,0   c1.911,1.911,1.911,5.011,0,6.921l-40.587,40.588C125.712,392.44,122.613,392.44,120.702,390.529z"/><path d="M140.023,409.659L140.023,409.659c-1.911-1.911-1.911-5.011,0-6.921l40.587-40.588c1.911-1.911,5.01-1.911,6.921,0l0,0   c1.911,1.912,1.911,5.01,0,6.922l-40.587,40.587C145.034,411.57,141.935,411.57,140.023,409.659z"/><path d="M101.956,371.592L101.956,371.592c-1.912-1.912-1.912-5.011,0-6.922l40.587-40.587c1.911-1.911,5.01-1.911,6.921,0l0,0   c1.911,1.911,1.911,5.01,0,6.921l-40.587,40.588C106.966,373.503,103.867,373.503,101.956,371.592z"/></g></svg>