<svg id="icon" xmlns="http://www.w3.org/2000/svg" viewBox="0 0 512 512"><title>pay cash</title><path d="M461.72,53.8H382.66L285.19,22a41.43,41.43,0,0,0-35.31,4.54L191.15,64.27a5.73,5.73,0,0,0,6.19,9.65l58.73-37.68A29.94,29.94,0,0,1,281.63,33L380,65a5.6,5.6,0,0,0,1.77.28H456v96.31H413.35a5.74,5.74,0,0,0-5.09,3.1,57.68,57.68,0,0,1-27.93,24.08V163c9.19-3.92,19-10.74,25.26-22.63A5.73,5.73,0,1,0,395.43,135c-10.9,20.84-38,21.77-38.15,21.77-36.3,0-46.78-25.34-47.2-26.39a5.74,5.74,0,0,0-5.35-3.68H250.86a15.31,15.31,0,1,1,0-30.61h64.3a5.74,5.74,0,1,0,0-11.47h-64.3a26.78,26.78,0,1,0,0,53.55h50.28c4.79,8.79,20.13,30.07,56.26,30.07a61.92,61.92,0,0,0,11.46-1.59v85a8.47,8.47,0,0,1-8.46,8.46H64.47A8.48,8.48,0,0,1,56,251.67V104.55a8.47,8.47,0,0,1,8.46-8.46H210.69a5.74,5.74,0,1,0,0-11.47H64.47a20,20,0,0,0-19.93,19.93V251.67A20,20,0,0,0,64.47,271.6H360.4a20,20,0,0,0,19.93-19.93V200.92c20.56-6.55,32.07-21.38,36.27-27.87h45.12a5.74,5.74,0,0,0,5.74-5.73V59.54A5.74,5.74,0,0,0,461.72,53.8Z"/><path d="M83.43,208.33V147.88a30.72,30.72,0,0,0,24.37-24.37h97.93a5.74,5.74,0,0,0,0-11.47H102.61a5.74,5.74,0,0,0-5.74,5.74A19.19,19.19,0,0,1,77.7,137,5.74,5.74,0,0,0,72,142.69v70.84a5.73,5.73,0,0,0,5.74,5.73,19.2,19.2,0,0,1,19.17,19.18,5.73,5.73,0,0,0,5.74,5.73H322.26a5.73,5.73,0,0,0,5.74-5.73,19.2,19.2,0,0,1,19.17-19.18,5.73,5.73,0,0,0,5.74-5.73V187.61a5.74,5.74,0,1,0-11.47,0v20.72a30.74,30.74,0,0,0-24.37,24.37H107.8A30.74,30.74,0,0,0,83.43,208.33Z"/><path d="M204.9,159.24h13.8a5.74,5.74,0,0,0,0-11.47h-4.51v-3.69a5.74,5.74,0,1,0-11.47,0v3.83a18,18,0,0,0,2.18,35.93H212A6.57,6.57,0,1,1,212,197H198.22a5.74,5.74,0,1,0,0,11.47h4.5v3.69a5.74,5.74,0,0,0,11.47,0V208.3A18,18,0,0,0,212,172.37H204.9a6.57,6.57,0,1,1,0-13.13Z"/><path d="M145.23,174.06a5.76,5.76,0,0,0-1.68,4,5.29,5.29,0,0,0,.12,1.13,5,5,0,0,0,.33,1.06,4.87,4.87,0,0,0,.53,1,5.26,5.26,0,0,0,.7.86,5.94,5.94,0,0,0,.87.72,5.86,5.86,0,0,0,1,.52,6.46,6.46,0,0,0,1.08.34,6,6,0,0,0,1.12.1,5.77,5.77,0,0,0,4.05-1.68,6,6,0,0,0,.72-.86,8,8,0,0,0,.53-1,7.63,7.63,0,0,0,.32-1.06,5.28,5.28,0,0,0,.11-1.13,5.73,5.73,0,0,0-9.79-4Z"/><path d="M270.81,181.3a6.56,6.56,0,0,0,.72.86,5.71,5.71,0,0,0,8.81-.86,4.87,4.87,0,0,0,.53-1,5,5,0,0,0,.33-1.06,5.24,5.24,0,0,0,.12-1.11,5.74,5.74,0,1,0-11.47,0,6,6,0,0,0,.11,1.11,6.51,6.51,0,0,0,.33,1.06A6.87,6.87,0,0,0,270.81,181.3Z"/><path d="M415.51,317.64a27.18,27.18,0,0,0-36.66,2.82l-36.27,39.21a5.74,5.74,0,1,0,8.42,7.79l36.27-39.21a15.64,15.64,0,0,1,21.11-1.62,15.57,15.57,0,0,1,2.37,22.05L347.61,425.9a28.92,28.92,0,0,1-18.3,10.35L207.09,453.94a40.9,40.9,0,0,0-29.77,20.58l-3.34,6H61.55l58.24-86.07a81.93,81.93,0,0,1,76.89-35.77,130.22,130.22,0,0,1,28.93,6.39,59.62,59.62,0,0,0,19.83,3.48h58.45a16.92,16.92,0,0,1,16.9,16.9,18.26,18.26,0,0,1-18.24,18.24H249A37.57,37.57,0,0,0,225,412.35l-12.58,10.44a5.74,5.74,0,0,0,7.33,8.83l12.57-10.44a26.08,26.08,0,0,1,16.62-6h53.59a29.75,29.75,0,0,0,29.71-29.71,28.41,28.41,0,0,0-28.37-28.37H245.44a48.12,48.12,0,0,1-16-2.83,141.49,141.49,0,0,0-31.49-7A93.38,93.38,0,0,0,110.29,388l-64.3,95A5.74,5.74,0,0,0,50.74,492H177.36a5.73,5.73,0,0,0,5-3l5-9a29.4,29.4,0,0,1,21.39-14.78L331,447.6a40.38,40.38,0,0,0,25.54-14.44l63.14-77.22a27,27,0,0,0-4.12-38.3Z"/></svg>